<svg width="19" height="19" viewBox="0 0 19 19" fill="none" xmlns="http://www.w3.org/2000/svg">
<g clip-path="url(#clip0_818_98)">
<path d="M9.48 10.9C7.21 10.31 6.48 9.7 6.48 8.75C6.48 7.66 7.49 6.9 9.18 6.9C10.96 6.9 11.62 7.75 11.68 9H13.89C13.82 7.28 12.77 5.7 10.68 5.19V3H7.68V5.16C5.74 5.58 4.18 6.84 4.18 8.77C4.18 11.08 6.09 12.23 8.88 12.9C11.38 13.5 11.88 14.38 11.88 15.31C11.88 16 11.39 17.1 9.18 17.1C7.12 17.1 6.31 16.18 6.2 15H4C4.12 17.19 5.76 18.42 7.68 18.83V21H10.68V18.85C12.63 18.48 14.18 17.35 14.18 15.3C14.18 12.46 11.75 11.49 9.48 10.9Z" fill="#E35A5A"/>
</g>
<defs>
<clipPath id="clip0_818_98">
<rect width="19" height="19" fill="white"/>
</clipPath>
</defs>
</svg>
