<svg width="19" height="19" viewBox="0 0 19 19" fill="none" xmlns="http://www.w3.org/2000/svg">
<path d="M8.90875 3C4.53875 3 1 6.54667 1 10.9167C1 15.2867 4.53875 18.8333 8.90875 18.8333C13.2867 18.8333 16.8333 15.2867 16.8333 10.9167C16.8333 6.54667 13.2867 3 8.90875 3ZM8.91667 17.25C5.4175 17.25 2.58333 14.4158 2.58333 10.9167C2.58333 7.4175 5.4175 4.58333 8.91667 4.58333C12.4158 4.58333 15.25 7.4175 15.25 10.9167C15.25 14.4158 12.4158 17.25 8.91667 17.25Z" fill="#E35A5A"/>
<path d="M9.3125 6.96094H8.125V11.7109L12.2813 14.2047L12.875 13.2309L9.3125 11.1172V6.96094Z" fill="#E35A5A"/>
</svg>
