<svg width="15" height="19" viewBox="0 0 15 19" fill="none" xmlns="http://www.w3.org/2000/svg">
<path d="M12.76 6.79406H11.8943V5.06272C11.8943 2.67348 9.95523 0.734375 7.56598 0.734375C5.17673 0.734375 3.23763 2.67348 3.23763 5.06272V6.79406H2.37196C1.41973 6.79406 0.640625 7.57317 0.640625 8.5254V17.1821C0.640625 18.1343 1.41973 18.9134 2.37196 18.9134H12.76C13.7122 18.9134 14.4913 18.1343 14.4913 17.1821V8.5254C14.4913 7.57317 13.7122 6.79406 12.76 6.79406ZM7.56598 14.5851C6.61375 14.5851 5.83464 13.806 5.83464 12.8538C5.83464 11.9015 6.61375 11.1224 7.56598 11.1224C8.51822 11.1224 9.29732 11.9015 9.29732 12.8538C9.29732 13.806 8.51822 14.5851 7.56598 14.5851ZM10.2496 6.79406H4.88241V5.06272C4.88241 3.58243 6.08569 2.37915 7.56598 2.37915C9.04628 2.37915 10.2496 3.58243 10.2496 5.06272V6.79406Z" fill="#D6D6D6"/>
</svg>
