<svg width="16" height="25" viewBox="0 0 16 25" fill="none" xmlns="http://www.w3.org/2000/svg">
<path d="M8.61297 10.9722C5.04519 10.1528 3.89784 9.30555 3.89784 7.98611C3.89784 6.47222 5.48526 5.41667 8.14145 5.41667C10.9391 5.41667 11.9764 6.59722 12.0707 8.33333H15.5442C15.4342 5.94444 13.7839 3.75 10.499 3.04167V0H5.78389V3C2.73477 3.58333 0.282907 5.33333 0.282907 8.01389C0.282907 11.2222 3.28487 12.8194 7.66994 13.75C11.5992 14.5833 12.3851 15.8056 12.3851 17.0972C12.3851 18.0556 11.6149 19.5833 8.14145 19.5833C4.90373 19.5833 3.63065 18.3056 3.45776 16.6667H0C0.188605 19.7083 2.76621 21.4167 5.78389 21.9861V25H10.499V22.0139C13.5638 21.5 16 19.9306 16 17.0833C16 13.1389 12.1807 11.7917 8.61297 10.9722Z" fill="#D6D6D6"/>
</svg>
