<svg width="305" height="182" viewBox="0 0 305 182" fill="none" xmlns="http://www.w3.org/2000/svg">
<path d="M73 110.25C73 118.948 80.0515 126 88.75 126H214.75C223.448 126 230.5 118.948 230.5 110.25C230.5 101.552 223.448 94.5 214.75 94.5H88.75C80.0515 94.5 73 101.552 73 110.25ZM88.75 110.25C88.75 105.901 92.2758 102.375 96.625 102.375C100.974 102.375 104.5 105.901 104.5 110.25C104.5 114.599 100.974 118.125 96.625 118.125C92.2758 118.125 88.75 114.599 88.75 110.25ZM88.75 0C80.0515 0 73 7.05152 73 15.75C73 24.4485 80.0515 31.5 88.75 31.5H214.75C223.448 31.5 230.5 24.4485 230.5 15.75C230.5 7.05152 223.448 0 214.75 0H88.75ZM104.5 15.75C104.5 20.0992 100.974 23.625 96.625 23.625C92.2758 23.625 88.75 20.0992 88.75 15.75C88.75 11.4008 92.2758 7.875 96.625 7.875C100.974 7.875 104.5 11.4008 104.5 15.75ZM73 63C73 71.6985 80.0515 78.75 88.75 78.75H214.75C223.448 78.75 230.5 71.6985 230.5 63C230.5 54.3015 223.448 47.25 214.75 47.25H88.75C80.0515 47.25 73 54.3015 73 63ZM88.75 63C88.75 58.6508 92.2758 55.125 96.625 55.125C100.974 55.125 104.5 58.6508 104.5 63C104.5 67.3492 100.974 70.875 96.625 70.875C92.2758 70.875 88.75 67.3492 88.75 63Z" fill="#23272A"/>
<path d="M47.5298 155H46.4481L40.4683 145.914V155H39.3866V144.199H40.4683L46.4481 153.269V144.199H47.5298V155ZM49.4851 150.766C49.4851 149.901 49.6551 149.144 49.995 148.495C50.3453 147.836 50.8243 147.331 51.4321 146.981C52.0501 146.62 52.7455 146.44 53.5181 146.44C54.3216 146.44 55.0117 146.625 55.5886 146.996C56.1758 147.367 56.5981 147.841 56.8556 148.418V146.563H57.9373V155H56.8556V153.13C56.5878 153.707 56.1603 154.186 55.5731 154.567C54.9963 154.938 54.3061 155.124 53.5026 155.124C52.7403 155.124 52.0501 154.943 51.4321 154.583C50.8243 154.222 50.3453 153.712 49.995 153.053C49.6551 152.394 49.4851 151.632 49.4851 150.766ZM56.8556 150.782C56.8556 150.102 56.7166 149.504 56.4384 148.989C56.1603 148.474 55.7792 148.078 55.295 147.799C54.8212 147.521 54.2958 147.382 53.7189 147.382C53.1215 147.382 52.5858 147.516 52.1119 147.784C51.6381 148.052 51.2621 148.443 50.984 148.958C50.7161 149.463 50.5822 150.066 50.5822 150.766C50.5822 151.456 50.7161 152.064 50.984 152.59C51.2621 153.105 51.6381 153.501 52.1119 153.779C52.5858 154.047 53.1215 154.181 53.7189 154.181C54.2958 154.181 54.8212 154.042 55.295 153.764C55.7792 153.486 56.1603 153.089 56.4384 152.574C56.7166 152.059 56.8556 151.462 56.8556 150.782ZM51.942 145.636C52.0038 145.173 52.1531 144.817 52.3901 144.57C52.627 144.323 52.9309 144.199 53.3017 144.199C53.4872 144.199 53.6468 144.235 53.7807 144.307C53.9147 144.369 54.0743 144.462 54.2597 144.585C54.4143 144.699 54.5482 144.786 54.6615 144.848C54.7748 144.9 54.8984 144.925 55.0323 144.925C55.2075 144.925 55.3568 144.869 55.4804 144.755C55.6041 144.632 55.6813 144.457 55.7122 144.23H56.3612C56.32 144.683 56.1706 145.039 55.9131 145.296C55.6659 145.543 55.3568 145.667 54.986 145.667C54.7903 145.667 54.6203 145.636 54.4761 145.574C54.3422 145.502 54.1825 145.399 53.9971 145.265C53.8528 145.152 53.7241 145.07 53.6108 145.018C53.5078 144.967 53.3893 144.941 53.2554 144.941C52.8845 144.941 52.6682 145.173 52.6064 145.636H51.942ZM64.0995 155.124C63.3063 155.124 62.5904 154.948 61.9517 154.598C61.3234 154.238 60.8237 153.733 60.4529 153.084C60.0924 152.425 59.9121 151.657 59.9121 150.782C59.9121 149.906 60.0975 149.144 60.4684 148.495C60.8392 147.836 61.344 147.331 61.9826 146.981C62.6213 146.62 63.3372 146.44 64.1304 146.44C64.9236 146.44 65.6396 146.62 66.2782 146.981C66.9272 147.331 67.432 147.836 67.7925 148.495C68.1634 149.144 68.3488 149.906 68.3488 150.782C68.3488 151.647 68.1634 152.409 67.7925 153.069C67.4217 153.728 66.9118 154.238 66.2628 154.598C65.6138 154.948 64.8927 155.124 64.0995 155.124ZM64.0995 154.181C64.6558 154.181 65.1709 154.057 65.6447 153.81C66.1186 153.553 66.4997 153.172 66.7881 152.667C67.0869 152.152 67.2363 151.523 67.2363 150.782C67.2363 150.04 67.092 149.417 66.8036 148.912C66.5152 148.397 66.134 148.016 65.6602 147.769C65.1863 147.511 64.6713 147.382 64.115 147.382C63.5587 147.382 63.0437 147.511 62.5698 147.769C62.0959 148.016 61.7148 148.397 61.4264 148.912C61.1482 149.417 61.0092 150.04 61.0092 150.782C61.0092 151.523 61.1482 152.152 61.4264 152.667C61.7148 153.172 62.0908 153.553 62.5544 153.81C63.0282 154.057 63.5433 154.181 64.0995 154.181ZM78.5781 146.409C79.2168 146.409 79.7885 146.543 80.2933 146.811C80.8083 147.078 81.2101 147.49 81.4985 148.047C81.7973 148.593 81.9466 149.262 81.9466 150.055V155H80.8805V150.179C80.8805 149.262 80.6487 148.562 80.1851 148.078C79.7319 147.593 79.1086 147.351 78.3155 147.351C77.5017 147.351 76.8527 147.609 76.3685 148.124C75.8844 148.639 75.6423 149.396 75.6423 150.395V155H74.5607V143.566H75.6423V148C75.9101 147.496 76.3016 147.104 76.8166 146.826C77.342 146.548 77.9292 146.409 78.5781 146.409ZM83.8443 150.766C83.8443 149.901 84.0143 149.144 84.3542 148.495C84.7045 147.836 85.1835 147.331 85.7912 146.981C86.4093 146.62 87.1046 146.44 87.8772 146.44C88.6807 146.44 89.3709 146.625 89.9478 146.996C90.5349 147.367 90.9573 147.841 91.2148 148.418V146.563H92.2964V155H91.2148V153.13C90.947 153.707 90.5195 154.186 89.9323 154.567C89.3555 154.938 88.6653 155.124 87.8618 155.124C87.0995 155.124 86.4093 154.943 85.7912 154.583C85.1835 154.222 84.7045 153.712 84.3542 153.053C84.0143 152.394 83.8443 151.632 83.8443 150.766ZM91.2148 150.782C91.2148 150.102 91.0758 149.504 90.7976 148.989C90.5195 148.474 90.1383 148.078 89.6542 147.799C89.1803 147.521 88.655 147.382 88.0781 147.382C87.4806 147.382 86.945 147.516 86.4711 147.784C85.9973 148.052 85.6213 148.443 85.3431 148.958C85.0753 149.463 84.9414 150.066 84.9414 150.766C84.9414 151.456 85.0753 152.064 85.3431 152.59C85.6213 153.105 85.9973 153.501 86.4711 153.779C86.945 154.047 87.4806 154.181 88.0781 154.181C88.655 154.181 89.1803 154.042 89.6542 153.764C90.1383 153.486 90.5195 153.089 90.7976 152.574C91.0758 152.059 91.2148 151.462 91.2148 150.782ZM89.7623 144.076L86.5947 145.914V145.08L89.7623 143.102V144.076ZM102.962 146.409C103.971 146.409 104.795 146.723 105.434 147.351C106.073 147.969 106.392 148.871 106.392 150.055V155H105.326V150.179C105.326 149.262 105.094 148.562 104.63 148.078C104.177 147.593 103.554 147.351 102.761 147.351C101.947 147.351 101.298 147.609 100.814 148.124C100.33 148.639 100.088 149.396 100.088 150.395V155H99.0059V146.563H100.088V148C100.355 147.485 100.742 147.094 101.246 146.826C101.751 146.548 102.323 146.409 102.962 146.409ZM116.417 150.349C116.417 150.72 116.407 151.003 116.386 151.199H109.387C109.418 151.838 109.572 152.383 109.85 152.837C110.128 153.29 110.494 153.635 110.947 153.872C111.401 154.099 111.895 154.212 112.431 154.212C113.131 154.212 113.718 154.042 114.192 153.702C114.676 153.362 114.996 152.904 115.15 152.327H116.294C116.088 153.151 115.645 153.826 114.965 154.351C114.295 154.866 113.45 155.124 112.431 155.124C111.637 155.124 110.927 154.948 110.298 154.598C109.67 154.238 109.175 153.733 108.815 153.084C108.465 152.425 108.29 151.657 108.29 150.782C108.29 149.906 108.465 149.139 108.815 148.479C109.165 147.82 109.654 147.315 110.283 146.965C110.911 146.615 111.627 146.44 112.431 146.44C113.234 146.44 113.935 146.615 114.532 146.965C115.14 147.315 115.603 147.789 115.923 148.387C116.252 148.974 116.417 149.628 116.417 150.349ZM115.32 150.318C115.33 149.69 115.202 149.154 114.934 148.711C114.676 148.268 114.321 147.933 113.868 147.707C113.414 147.48 112.92 147.367 112.384 147.367C111.581 147.367 110.896 147.624 110.329 148.139C109.763 148.654 109.448 149.381 109.387 150.318H115.32ZM122.352 146.409C123.361 146.409 124.185 146.723 124.824 147.351C125.463 147.969 125.782 148.871 125.782 150.055V155H124.716V150.179C124.716 149.262 124.484 148.562 124.021 148.078C123.567 147.593 122.944 147.351 122.151 147.351C121.337 147.351 120.688 147.609 120.204 148.124C119.72 148.639 119.478 149.396 119.478 150.395V155H118.396V146.563H119.478V148C119.746 147.485 120.132 147.094 120.637 146.826C121.141 146.548 121.713 146.409 122.352 146.409ZM132.192 146.409C132.83 146.409 133.402 146.543 133.907 146.811C134.422 147.078 134.824 147.49 135.112 148.047C135.411 148.593 135.56 149.262 135.56 150.055V155H134.494V150.179C134.494 149.262 134.262 148.562 133.799 148.078C133.345 147.593 132.722 147.351 131.929 147.351C131.115 147.351 130.466 147.609 129.982 148.124C129.498 148.639 129.256 149.396 129.256 150.395V155H128.174V143.566H129.256V148C129.524 147.496 129.915 147.104 130.43 146.826C130.956 146.548 131.543 146.409 132.192 146.409ZM145.261 146.563V155H144.179V153.517C143.932 154.042 143.551 154.444 143.036 154.722C142.521 155 141.944 155.139 141.305 155.139C140.296 155.139 139.472 154.83 138.833 154.212C138.194 153.584 137.875 152.677 137.875 151.492V146.563H138.941V151.369C138.941 152.286 139.168 152.986 139.621 153.47C140.085 153.954 140.713 154.197 141.506 154.197C142.32 154.197 142.969 153.939 143.453 153.424C143.937 152.909 144.179 152.152 144.179 151.152V146.563H145.261ZM157.774 146.409C158.763 146.409 159.567 146.723 160.185 147.351C160.813 147.969 161.127 148.871 161.127 150.055V155H160.061V150.179C160.061 149.262 159.84 148.562 159.397 148.078C158.954 147.593 158.351 147.351 157.589 147.351C156.796 147.351 156.162 147.614 155.688 148.139C155.214 148.665 154.977 149.427 154.977 150.426V155H153.911V150.179C153.911 149.262 153.69 148.562 153.247 148.078C152.804 147.593 152.196 147.351 151.423 147.351C150.63 147.351 149.997 147.614 149.523 148.139C149.049 148.665 148.812 149.427 148.812 150.426V155H147.73V146.563H148.812V148.016C149.08 147.49 149.461 147.094 149.956 146.826C150.45 146.548 151.001 146.409 151.609 146.409C152.34 146.409 152.979 146.584 153.525 146.934C154.081 147.284 154.483 147.799 154.73 148.479C154.957 147.81 155.343 147.3 155.889 146.95C156.445 146.589 157.074 146.409 157.774 146.409ZM163.035 150.766C163.035 149.901 163.205 149.144 163.545 148.495C163.895 147.836 164.374 147.331 164.982 146.981C165.6 146.62 166.295 146.44 167.068 146.44C167.871 146.44 168.561 146.625 169.138 146.996C169.726 147.367 170.148 147.841 170.405 148.418V146.563H171.487V155H170.405V153.13C170.138 153.707 169.71 154.186 169.123 154.567C168.546 154.938 167.856 155.124 167.052 155.124C166.29 155.124 165.6 154.943 164.982 154.583C164.374 154.222 163.895 153.712 163.545 153.053C163.205 152.394 163.035 151.632 163.035 150.766ZM170.405 150.782C170.405 150.102 170.266 149.504 169.988 148.989C169.71 148.474 169.329 148.078 168.845 147.799C168.371 147.521 167.846 147.382 167.269 147.382C166.671 147.382 166.136 147.516 165.662 147.784C165.188 148.052 164.812 148.443 164.534 148.958C164.266 149.463 164.132 150.066 164.132 150.766C164.132 151.456 164.266 152.064 164.534 152.59C164.812 153.105 165.188 153.501 165.662 153.779C166.136 154.047 166.671 154.181 167.269 154.181C167.846 154.181 168.371 154.042 168.845 153.764C169.329 153.486 169.71 153.089 169.988 152.574C170.266 152.059 170.405 151.462 170.405 150.782ZM178.737 144.972C178.521 144.972 178.336 144.895 178.181 144.74C178.027 144.585 177.949 144.395 177.949 144.168C177.949 143.942 178.027 143.756 178.181 143.612C178.336 143.457 178.521 143.38 178.737 143.38C178.954 143.38 179.139 143.457 179.294 143.612C179.448 143.756 179.525 143.942 179.525 144.168C179.525 144.395 179.448 144.585 179.294 144.74C179.139 144.895 178.954 144.972 178.737 144.972ZM179.278 146.563V155H178.196V146.563H179.278ZM185.683 146.409C186.693 146.409 187.517 146.723 188.155 147.351C188.794 147.969 189.113 148.871 189.113 150.055V155H188.047V150.179C188.047 149.262 187.815 148.562 187.352 148.078C186.899 147.593 186.275 147.351 185.482 147.351C184.668 147.351 184.019 147.609 183.535 148.124C183.051 148.639 182.809 149.396 182.809 150.395V155H181.727V146.563H182.809V148C183.077 147.485 183.463 147.094 183.968 146.826C184.473 146.548 185.044 146.409 185.683 146.409ZM194.828 147.475H192.865V155H191.784V147.475H190.609V146.563H191.784V145.976C191.784 145.059 192.015 144.385 192.479 143.952C192.953 143.519 193.715 143.303 194.766 143.303V144.23C194.065 144.23 193.571 144.364 193.283 144.632C193.004 144.9 192.865 145.348 192.865 145.976V146.563H194.828V147.475ZM200.223 155.124C199.43 155.124 198.714 154.948 198.076 154.598C197.447 154.238 196.948 153.733 196.577 153.084C196.216 152.425 196.036 151.657 196.036 150.782C196.036 149.906 196.221 149.144 196.592 148.495C196.963 147.836 197.468 147.331 198.107 146.981C198.745 146.62 199.461 146.44 200.254 146.44C201.048 146.44 201.763 146.62 202.402 146.981C203.051 147.331 203.556 147.836 203.916 148.495C204.287 149.144 204.473 149.906 204.473 150.782C204.473 151.647 204.287 152.409 203.916 153.069C203.546 153.728 203.036 154.238 202.387 154.598C201.738 154.948 201.017 155.124 200.223 155.124ZM200.223 154.181C200.78 154.181 201.295 154.057 201.769 153.81C202.242 153.553 202.624 153.172 202.912 152.667C203.211 152.152 203.36 151.523 203.36 150.782C203.36 150.04 203.216 149.417 202.927 148.912C202.639 148.397 202.258 148.016 201.784 147.769C201.31 147.511 200.795 147.382 200.239 147.382C199.683 147.382 199.168 147.511 198.694 147.769C198.22 148.016 197.839 148.397 197.55 148.912C197.272 149.417 197.133 150.04 197.133 150.782C197.133 151.523 197.272 152.152 197.55 152.667C197.839 153.172 198.215 153.553 198.678 153.81C199.152 154.057 199.667 154.181 200.223 154.181ZM207.526 148.062C207.763 147.537 208.123 147.13 208.608 146.841C209.102 146.553 209.705 146.409 210.415 146.409V147.537H210.122C209.339 147.537 208.711 147.748 208.237 148.17C207.763 148.593 207.526 149.298 207.526 150.287V155H206.444V146.563H207.526V148.062ZM222.086 146.409C223.075 146.409 223.879 146.723 224.497 147.351C225.125 147.969 225.439 148.871 225.439 150.055V155H224.373V150.179C224.373 149.262 224.152 148.562 223.709 148.078C223.266 147.593 222.663 147.351 221.901 147.351C221.108 147.351 220.474 147.614 220 148.139C219.526 148.665 219.29 149.427 219.29 150.426V155H218.223V150.179C218.223 149.262 218.002 148.562 217.559 148.078C217.116 147.593 216.508 147.351 215.736 147.351C214.942 147.351 214.309 147.614 213.835 148.139C213.361 148.665 213.124 149.427 213.124 150.426V155H212.043V146.563H213.124V148.016C213.392 147.49 213.773 147.094 214.268 146.826C214.762 146.548 215.313 146.409 215.921 146.409C216.652 146.409 217.291 146.584 217.837 146.934C218.393 147.284 218.795 147.799 219.042 148.479C219.269 147.81 219.655 147.3 220.201 146.95C220.757 146.589 221.386 146.409 222.086 146.409ZM227.347 150.766C227.347 149.901 227.517 149.144 227.857 148.495C228.207 147.836 228.686 147.331 229.294 146.981C229.912 146.62 230.607 146.44 231.38 146.44C232.183 146.44 232.874 146.625 233.451 146.996C234.038 147.367 234.46 147.841 234.718 148.418V146.563H235.799V155H234.718V153.13C234.45 153.707 234.022 154.186 233.435 154.567C232.858 154.938 232.168 155.124 231.365 155.124C230.602 155.124 229.912 154.943 229.294 154.583C228.686 154.222 228.207 153.712 227.857 153.053C227.517 152.394 227.347 151.632 227.347 150.766ZM234.718 150.782C234.718 150.102 234.579 149.504 234.3 148.989C234.022 148.474 233.641 148.078 233.157 147.799C232.683 147.521 232.158 147.382 231.581 147.382C230.983 147.382 230.448 147.516 229.974 147.784C229.5 148.052 229.124 148.443 228.846 148.958C228.578 149.463 228.444 150.066 228.444 150.766C228.444 151.456 228.578 152.064 228.846 152.59C229.124 153.105 229.5 153.501 229.974 153.779C230.448 154.047 230.983 154.181 231.581 154.181C232.158 154.181 232.683 154.042 233.157 153.764C233.641 153.486 234.022 153.089 234.3 152.574C234.579 152.059 234.718 151.462 234.718 150.782ZM241.869 154.212C242.58 154.212 243.172 154.042 243.646 153.702C244.13 153.352 244.444 152.868 244.588 152.25H245.747C245.562 153.063 245.16 153.728 244.542 154.243C243.934 154.758 243.162 155.046 242.224 155.108V156.035C242.832 156.015 243.311 156.128 243.661 156.375C244.022 156.633 244.202 156.998 244.202 157.472C244.202 157.936 244.037 158.302 243.708 158.569C243.378 158.848 242.94 158.987 242.394 158.987H240.849V158.26H242.178C242.559 158.26 242.837 158.193 243.012 158.059C243.198 157.936 243.29 157.74 243.29 157.472C243.29 156.978 242.919 156.731 242.178 156.731H241.467V155.108C240.746 155.046 240.107 154.835 239.551 154.475C238.995 154.104 238.557 153.604 238.238 152.976C237.929 152.337 237.774 151.606 237.774 150.782C237.774 149.906 237.949 149.144 238.299 148.495C238.65 147.836 239.134 147.331 239.752 146.981C240.37 146.62 241.076 146.44 241.869 146.44C242.909 146.44 243.764 146.697 244.434 147.212C245.114 147.727 245.551 148.428 245.747 149.314H244.588C244.444 148.706 244.13 148.232 243.646 147.892C243.172 147.542 242.58 147.367 241.869 147.367C241.302 147.367 240.792 147.496 240.339 147.753C239.886 148.011 239.525 148.397 239.257 148.912C239 149.417 238.871 150.04 238.871 150.782C238.871 151.523 239 152.152 239.257 152.667C239.525 153.182 239.886 153.568 240.339 153.826C240.792 154.083 241.302 154.212 241.869 154.212ZM247.25 150.766C247.25 149.901 247.42 149.144 247.76 148.495C248.11 147.836 248.589 147.331 249.197 146.981C249.815 146.62 250.511 146.44 251.283 146.44C252.087 146.44 252.777 146.625 253.354 146.996C253.941 147.367 254.363 147.841 254.621 148.418V146.563H255.702V155H254.621V153.13C254.353 153.707 253.925 154.186 253.338 154.567C252.761 154.938 252.071 155.124 251.268 155.124C250.505 155.124 249.815 154.943 249.197 154.583C248.589 154.222 248.11 153.712 247.76 153.053C247.42 152.394 247.25 151.632 247.25 150.766ZM254.621 150.782C254.621 150.102 254.482 149.504 254.204 148.989C253.925 148.474 253.544 148.078 253.06 147.799C252.586 147.521 252.061 147.382 251.484 147.382C250.887 147.382 250.351 147.516 249.877 147.784C249.403 148.052 249.027 148.443 248.749 148.958C248.481 149.463 248.347 150.066 248.347 150.766C248.347 151.456 248.481 152.064 248.749 152.59C249.027 153.105 249.403 153.501 249.877 153.779C250.351 154.047 250.887 154.181 251.484 154.181C252.061 154.181 252.586 154.042 253.06 153.764C253.544 153.486 253.925 153.089 254.204 152.574C254.482 152.059 254.621 151.462 254.621 150.782ZM249.707 145.636C249.769 145.173 249.918 144.817 250.155 144.57C250.392 144.323 250.696 144.199 251.067 144.199C251.252 144.199 251.412 144.235 251.546 144.307C251.68 144.369 251.839 144.462 252.025 144.585C252.179 144.699 252.313 144.786 252.427 144.848C252.54 144.9 252.664 144.925 252.798 144.925C252.973 144.925 253.122 144.869 253.246 144.755C253.369 144.632 253.446 144.457 253.477 144.23H254.126C254.085 144.683 253.936 145.039 253.678 145.296C253.431 145.543 253.122 145.667 252.751 145.667C252.555 145.667 252.385 145.636 252.241 145.574C252.107 145.502 251.948 145.399 251.762 145.265C251.618 145.152 251.489 145.07 251.376 145.018C251.273 144.967 251.154 144.941 251.021 144.941C250.65 144.941 250.433 145.173 250.372 145.636H249.707ZM261.865 155.124C261.072 155.124 260.356 154.948 259.717 154.598C259.089 154.238 258.589 153.733 258.218 153.084C257.858 152.425 257.677 151.657 257.677 150.782C257.677 149.906 257.863 149.144 258.234 148.495C258.604 147.836 259.109 147.331 259.748 146.981C260.386 146.62 261.102 146.44 261.896 146.44C262.689 146.44 263.405 146.62 264.043 146.981C264.692 147.331 265.197 147.836 265.558 148.495C265.929 149.144 266.114 149.906 266.114 150.782C266.114 151.647 265.929 152.409 265.558 153.069C265.187 153.728 264.677 154.238 264.028 154.598C263.379 154.948 262.658 155.124 261.865 155.124ZM261.865 154.181C262.421 154.181 262.936 154.057 263.41 153.81C263.884 153.553 264.265 153.172 264.553 152.667C264.852 152.152 265.001 151.523 265.001 150.782C265.001 150.04 264.857 149.417 264.569 148.912C264.28 148.397 263.899 148.016 263.425 147.769C262.952 147.511 262.436 147.382 261.88 147.382C261.324 147.382 260.809 147.511 260.335 147.769C259.861 148.016 259.48 148.397 259.192 148.912C258.913 149.417 258.774 150.04 258.774 150.782C258.774 151.523 258.913 152.152 259.192 152.667C259.48 153.172 259.856 153.553 260.32 153.81C260.793 154.057 261.308 154.181 261.865 154.181Z" fill="#B7B7B7"/>
<path d="M8.14692 167.684C8.14692 168.611 7.84304 169.358 7.23527 169.924C6.62749 170.491 5.71584 170.774 4.50029 170.774H2.32159V175.379H1.23996V164.578H4.50029C5.70554 164.578 6.61204 164.861 7.21981 165.428C7.83789 165.995 8.14692 166.746 8.14692 167.684ZM4.50029 169.847C6.18969 169.847 7.03439 169.126 7.03439 167.684C7.03439 166.963 6.83352 166.417 6.43177 166.046C6.03002 165.675 5.3862 165.49 4.50029 165.49H2.32159V169.847H4.50029ZM13.6548 175.503C12.8616 175.503 12.1456 175.327 11.507 174.977C10.8786 174.617 10.379 174.112 10.0081 173.463C9.6476 172.804 9.46733 172.036 9.46733 171.161C9.46733 170.285 9.65275 169.523 10.0236 168.874C10.3944 168.214 10.8992 167.71 11.5379 167.359C12.1765 166.999 12.8925 166.819 13.6857 166.819C14.4789 166.819 15.1948 166.999 15.8335 167.359C16.4825 167.71 16.9872 168.214 17.3478 168.874C17.7186 169.523 17.904 170.285 17.904 171.161C17.904 172.026 17.7186 172.788 17.3478 173.447C16.9769 174.107 16.467 174.617 15.818 174.977C15.1691 175.327 14.448 175.503 13.6548 175.503ZM13.6548 174.56C14.211 174.56 14.7261 174.436 15.2 174.189C15.6738 173.932 16.055 173.55 16.3434 173.046C16.6421 172.531 16.7915 171.902 16.7915 171.161C16.7915 170.419 16.6473 169.796 16.3588 169.291C16.0704 168.776 15.6893 168.395 15.2154 168.147C14.7416 167.89 14.2265 167.761 13.6702 167.761C13.114 167.761 12.5989 167.89 12.125 168.147C11.6512 168.395 11.27 168.776 10.9816 169.291C10.7035 169.796 10.5644 170.419 10.5644 171.161C10.5644 171.902 10.7035 172.531 10.9816 173.046C11.27 173.55 11.646 173.932 12.1096 174.189C12.5834 174.436 13.0985 174.56 13.6548 174.56ZM22.7806 175.503C21.8123 175.503 21.0191 175.281 20.4011 174.838C19.7933 174.385 19.4533 173.772 19.3812 172.999H20.4938C20.5453 173.473 20.7668 173.859 21.1582 174.158C21.5599 174.447 22.0956 174.591 22.7652 174.591C23.3524 174.591 23.8108 174.452 24.1404 174.174C24.4803 173.896 24.6503 173.55 24.6503 173.138C24.6503 172.85 24.5576 172.613 24.3722 172.428C24.1868 172.242 23.9498 172.098 23.6614 171.995C23.3833 171.882 23.0021 171.763 22.518 171.64C21.8896 171.475 21.3797 171.31 20.9882 171.145C20.5968 170.98 20.262 170.738 19.9839 170.419C19.716 170.089 19.5821 169.651 19.5821 169.105C19.5821 168.693 19.7057 168.312 19.953 167.962C20.2002 167.612 20.5504 167.334 21.0037 167.128C21.4569 166.922 21.972 166.819 22.5489 166.819C23.4554 166.819 24.1868 167.05 24.743 167.514C25.2993 167.967 25.598 168.596 25.6392 169.399H24.5576C24.5267 168.905 24.331 168.508 23.9704 168.209C23.6202 167.9 23.136 167.746 22.518 167.746C21.972 167.746 21.529 167.874 21.1891 168.132C20.8492 168.39 20.6792 168.709 20.6792 169.09C20.6792 169.42 20.7771 169.693 20.9728 169.909C21.1788 170.115 21.4312 170.28 21.7299 170.403C22.0287 170.517 22.4304 170.645 22.9352 170.79C23.5429 170.955 24.0271 171.114 24.3876 171.269C24.7482 171.423 25.0572 171.65 25.3147 171.949C25.5723 172.247 25.7062 172.644 25.7165 173.138C25.7165 173.592 25.5929 173.999 25.3456 174.359C25.0984 174.709 24.7533 174.987 24.3104 175.193C23.8674 175.4 23.3575 175.503 22.7806 175.503ZM30.6574 175.503C29.6891 175.503 28.8959 175.281 28.2779 174.838C27.6701 174.385 27.3302 173.772 27.258 172.999H28.3706C28.4221 173.473 28.6436 173.859 29.035 174.158C29.4368 174.447 29.9724 174.591 30.642 174.591C31.2292 174.591 31.6876 174.452 32.0172 174.174C32.3571 173.896 32.5271 173.55 32.5271 173.138C32.5271 172.85 32.4344 172.613 32.249 172.428C32.0636 172.242 31.8266 172.098 31.5382 171.995C31.2601 171.882 30.8789 171.763 30.3948 171.64C29.7664 171.475 29.2565 171.31 28.865 171.145C28.4736 170.98 28.1388 170.738 27.8607 170.419C27.5928 170.089 27.4589 169.651 27.4589 169.105C27.4589 168.693 27.5825 168.312 27.8298 167.962C28.077 167.612 28.4272 167.334 28.8805 167.128C29.3337 166.922 29.8488 166.819 30.4257 166.819C31.3322 166.819 32.0636 167.05 32.6198 167.514C33.1761 167.967 33.4748 168.596 33.516 169.399H32.4344C32.4035 168.905 32.2078 168.508 31.8472 168.209C31.497 167.9 31.0128 167.746 30.3948 167.746C29.8488 167.746 29.4059 167.874 29.0659 168.132C28.726 168.39 28.556 168.709 28.556 169.09C28.556 169.42 28.6539 169.693 28.8496 169.909C29.0556 170.115 29.308 170.28 29.6067 170.403C29.9055 170.517 30.3072 170.645 30.812 170.79C31.4197 170.955 31.9039 171.114 32.2644 171.269C32.625 171.423 32.934 171.65 33.1915 171.949C33.4491 172.247 33.583 172.644 33.5933 173.138C33.5933 173.592 33.4697 173.999 33.2225 174.359C32.9752 174.709 32.6301 174.987 32.1872 175.193C31.7442 175.4 31.2343 175.503 30.6574 175.503ZM36.1701 165.351C35.9538 165.351 35.7684 165.273 35.6139 165.119C35.4593 164.964 35.3821 164.774 35.3821 164.547C35.3821 164.321 35.4593 164.135 35.6139 163.991C35.7684 163.836 35.9538 163.759 36.1701 163.759C36.3865 163.759 36.5719 163.836 36.7264 163.991C36.8809 164.135 36.9582 164.321 36.9582 164.547C36.9582 164.774 36.8809 164.964 36.7264 165.119C36.5719 165.273 36.3865 165.351 36.1701 165.351ZM36.7109 166.942V175.379H35.6293V166.942H36.7109ZM42.1579 174.328L45.0011 166.942H46.1445L42.7606 175.379H41.5399L38.1559 166.942H39.3148L42.1579 174.328ZM55.2437 170.728C55.2437 171.099 55.2334 171.382 55.2128 171.578H48.2131C48.244 172.216 48.3986 172.762 48.6767 173.216C48.9548 173.669 49.3205 174.014 49.7738 174.251C50.227 174.478 50.7215 174.591 51.2571 174.591C51.9576 174.591 52.5448 174.421 53.0186 174.081C53.5028 173.741 53.8221 173.283 53.9767 172.706H55.1201C54.9141 173.53 54.4711 174.205 53.7912 174.73C53.1217 175.245 52.277 175.503 51.2571 175.503C50.4639 175.503 49.7532 175.327 49.1248 174.977C48.4964 174.617 48.002 174.112 47.6414 173.463C47.2912 172.804 47.1161 172.036 47.1161 171.161C47.1161 170.285 47.2912 169.518 47.6414 168.858C47.9917 168.199 48.481 167.694 49.1093 167.344C49.7377 166.994 50.4536 166.819 51.2571 166.819C52.0606 166.819 52.7611 166.994 53.3586 167.344C53.9664 167.694 54.4299 168.168 54.7492 168.766C55.0789 169.353 55.2437 170.007 55.2437 170.728ZM54.1466 170.697C54.1569 170.069 54.0282 169.533 53.7603 169.09C53.5028 168.647 53.1474 168.312 52.6942 168.086C52.2409 167.859 51.7464 167.746 51.2108 167.746C50.4073 167.746 49.7223 168.003 49.1557 168.518C48.5891 169.033 48.2749 169.76 48.2131 170.697H54.1466ZM58.3043 163.945V175.379H57.2226V163.945H58.3043ZM70.7973 166.788C71.7862 166.788 72.5897 167.102 73.2078 167.73C73.8362 168.348 74.1503 169.25 74.1503 170.434V175.379H73.0842V170.558C73.0842 169.641 72.8627 168.941 72.4197 168.456C71.9768 167.972 71.3742 167.73 70.6119 167.73C69.8187 167.73 69.1852 167.993 68.7113 168.518C68.2374 169.044 68.0005 169.806 68.0005 170.805V175.379H66.9343V170.558C66.9343 169.641 66.7129 168.941 66.2699 168.456C65.827 167.972 65.2192 167.73 64.4466 167.73C63.6534 167.73 63.0199 167.993 62.546 168.518C62.0722 169.044 61.8352 169.806 61.8352 170.805V175.379H60.7536V166.942H61.8352V168.395C62.1031 167.869 62.4842 167.473 62.9787 167.205C63.4731 166.927 64.0242 166.788 64.632 166.788C65.3634 166.788 66.0021 166.963 66.548 167.313C67.1043 167.663 67.5061 168.178 67.7533 168.858C67.9799 168.189 68.3662 167.679 68.9122 167.329C69.4684 166.968 70.0968 166.788 70.7973 166.788ZM84.1857 170.728C84.1857 171.099 84.1754 171.382 84.1548 171.578H77.1551C77.186 172.216 77.3405 172.762 77.6187 173.216C77.8968 173.669 78.2625 174.014 78.7157 174.251C79.169 174.478 79.6635 174.591 80.1991 174.591C80.8996 174.591 81.4868 174.421 81.9606 174.081C82.4448 173.741 82.7641 173.283 82.9186 172.706H84.0621C83.8561 173.53 83.4131 174.205 82.7332 174.73C82.0636 175.245 81.2189 175.503 80.1991 175.503C79.4059 175.503 78.6951 175.327 78.0668 174.977C77.4384 174.617 76.9439 174.112 76.5834 173.463C76.2332 172.804 76.058 172.036 76.058 171.161C76.058 170.285 76.2332 169.518 76.5834 168.858C76.9336 168.199 77.4229 167.694 78.0513 167.344C78.6797 166.994 79.3956 166.819 80.1991 166.819C81.0026 166.819 81.7031 166.994 82.3006 167.344C82.9083 167.694 83.3719 168.168 83.6912 168.766C84.0209 169.353 84.1857 170.007 84.1857 170.728ZM83.0886 170.697C83.0989 170.069 82.9701 169.533 82.7023 169.09C82.4448 168.647 82.0894 168.312 81.6361 168.086C81.1829 167.859 80.6884 167.746 80.1528 167.746C79.3493 167.746 78.6642 168.003 78.0977 168.518C77.5311 169.033 77.2169 169.76 77.1551 170.697H83.0886ZM90.1203 166.788C91.1298 166.788 91.9539 167.102 92.5926 167.73C93.2312 168.348 93.5506 169.25 93.5506 170.434V175.379H92.4844V170.558C92.4844 169.641 92.2526 168.941 91.7891 168.456C91.3358 167.972 90.7126 167.73 89.9194 167.73C89.1056 167.73 88.4566 167.988 87.9725 168.503C87.4883 169.018 87.2462 169.775 87.2462 170.774V175.379H86.1646V166.942H87.2462V168.379C87.5141 167.864 87.9004 167.473 88.4051 167.205C88.9099 166.927 89.4816 166.788 90.1203 166.788ZM97.3488 167.854V173.092C97.3488 173.607 97.4467 173.962 97.6424 174.158C97.8381 174.354 98.1832 174.452 98.6777 174.452H99.6666V175.379H98.5077C97.7454 175.379 97.1789 175.204 96.808 174.854C96.4372 174.493 96.2517 173.906 96.2517 173.092V167.854H95.0774V166.942H96.2517V164.825H97.3488V166.942H99.6666V167.854H97.3488ZM109.084 170.728C109.084 171.099 109.073 171.382 109.053 171.578H102.053C102.084 172.216 102.238 172.762 102.517 173.216C102.795 173.669 103.16 174.014 103.614 174.251C104.067 174.478 104.561 174.591 105.097 174.591C105.798 174.591 106.385 174.421 106.859 174.081C107.343 173.741 107.662 173.283 107.817 172.706H108.96C108.754 173.53 108.311 174.205 107.631 174.73C106.962 175.245 106.117 175.503 105.097 175.503C104.304 175.503 103.593 175.327 102.965 174.977C102.336 174.617 101.842 174.112 101.481 173.463C101.131 172.804 100.956 172.036 100.956 171.161C100.956 170.285 101.131 169.518 101.481 168.858C101.832 168.199 102.321 167.694 102.949 167.344C103.578 166.994 104.294 166.819 105.097 166.819C105.901 166.819 106.601 166.994 107.199 167.344C107.806 167.694 108.27 168.168 108.589 168.766C108.919 169.353 109.084 170.007 109.084 170.728ZM107.987 170.697C107.997 170.069 107.868 169.533 107.6 169.09C107.343 168.647 106.987 168.312 106.534 168.086C106.081 167.859 105.586 167.746 105.051 167.746C104.247 167.746 103.562 168.003 102.996 168.518C102.429 169.033 102.115 169.76 102.053 170.697H107.987ZM118.996 175.503C118.203 175.503 117.487 175.327 116.848 174.977C116.22 174.617 115.72 174.112 115.349 173.463C114.989 172.804 114.808 172.036 114.808 171.161C114.808 170.285 114.994 169.523 115.365 168.874C115.735 168.214 116.24 167.71 116.879 167.359C117.518 166.999 118.233 166.819 119.027 166.819C119.82 166.819 120.536 166.999 121.174 167.359C121.823 167.71 122.328 168.214 122.689 168.874C123.06 169.523 123.245 170.285 123.245 171.161C123.245 172.026 123.06 172.788 122.689 173.447C122.318 174.107 121.808 174.617 121.159 174.977C120.51 175.327 119.789 175.503 118.996 175.503ZM118.996 174.56C119.552 174.56 120.067 174.436 120.541 174.189C121.015 173.932 121.396 173.55 121.684 173.046C121.983 172.531 122.132 171.902 122.132 171.161C122.132 170.419 121.988 169.796 121.7 169.291C121.411 168.776 121.03 168.395 120.556 168.147C120.083 167.89 119.567 167.761 119.011 167.761C118.455 167.761 117.94 167.89 117.466 168.147C116.992 168.395 116.611 168.776 116.323 169.291C116.044 169.796 115.905 170.419 115.905 171.161C115.905 171.902 116.044 172.531 116.323 173.046C116.611 173.55 116.987 173.932 117.451 174.189C117.924 174.436 118.439 174.56 118.996 174.56ZM128.962 171.161C128.962 170.285 129.138 169.523 129.488 168.874C129.838 168.214 130.322 167.71 130.94 167.359C131.558 166.999 132.264 166.819 133.057 166.819C134.098 166.819 134.953 167.076 135.622 167.591C136.302 168.106 136.74 168.807 136.936 169.693H135.777C135.632 169.085 135.318 168.611 134.834 168.271C134.36 167.921 133.768 167.746 133.057 167.746C132.491 167.746 131.981 167.874 131.527 168.132C131.074 168.39 130.714 168.776 130.446 169.291C130.188 169.796 130.059 170.419 130.059 171.161C130.059 171.902 130.188 172.531 130.446 173.046C130.714 173.561 131.074 173.947 131.527 174.205C131.981 174.462 132.491 174.591 133.057 174.591C133.768 174.591 134.36 174.421 134.834 174.081C135.318 173.731 135.632 173.247 135.777 172.628H136.936C136.74 173.494 136.302 174.189 135.622 174.714C134.942 175.24 134.087 175.503 133.057 175.503C132.264 175.503 131.558 175.327 130.94 174.977C130.322 174.617 129.838 174.112 129.488 173.463C129.138 172.804 128.962 172.036 128.962 171.161ZM139.474 165.351C139.258 165.351 139.072 165.273 138.918 165.119C138.763 164.964 138.686 164.774 138.686 164.547C138.686 164.321 138.763 164.135 138.918 163.991C139.072 163.836 139.258 163.759 139.474 163.759C139.69 163.759 139.876 163.836 140.03 163.991C140.185 164.135 140.262 164.321 140.262 164.547C140.262 164.774 140.185 164.964 140.03 165.119C139.876 165.273 139.69 165.351 139.474 165.351ZM140.015 166.942V175.379H138.933V166.942H140.015ZM141.97 171.145C141.97 170.28 142.145 169.523 142.495 168.874C142.845 168.214 143.324 167.71 143.932 167.359C144.55 166.999 145.245 166.819 146.018 166.819C146.76 166.819 147.429 166.999 148.027 167.359C148.624 167.72 149.062 168.189 149.34 168.766V163.945H150.422V175.379H149.34V173.494C149.083 174.081 148.66 174.565 148.073 174.946C147.486 175.317 146.796 175.503 146.003 175.503C145.23 175.503 144.535 175.322 143.917 174.962C143.309 174.601 142.83 174.091 142.48 173.432C142.14 172.773 141.97 172.01 141.97 171.145ZM149.34 171.161C149.34 170.481 149.201 169.883 148.923 169.368C148.645 168.853 148.264 168.456 147.78 168.178C147.306 167.9 146.78 167.761 146.203 167.761C145.606 167.761 145.07 167.895 144.597 168.163C144.123 168.431 143.747 168.822 143.469 169.337C143.201 169.842 143.067 170.445 143.067 171.145C143.067 171.835 143.201 172.443 143.469 172.968C143.747 173.483 144.123 173.88 144.597 174.158C145.07 174.426 145.606 174.56 146.203 174.56C146.78 174.56 147.306 174.421 147.78 174.143C148.264 173.865 148.645 173.468 148.923 172.953C149.201 172.438 149.34 171.84 149.34 171.161ZM152.397 171.145C152.397 170.28 152.567 169.523 152.907 168.874C153.257 168.214 153.736 167.71 154.344 167.359C154.962 166.999 155.657 166.819 156.43 166.819C157.233 166.819 157.923 167.004 158.5 167.375C159.087 167.746 159.51 168.22 159.767 168.796V166.942H160.849V175.379H159.767V173.509C159.499 174.086 159.072 174.565 158.485 174.946C157.908 175.317 157.218 175.503 156.414 175.503C155.652 175.503 154.962 175.322 154.344 174.962C153.736 174.601 153.257 174.091 152.907 173.432C152.567 172.773 152.397 172.01 152.397 171.145ZM159.767 171.161C159.767 170.481 159.628 169.883 159.35 169.368C159.072 168.853 158.691 168.456 158.207 168.178C157.733 167.9 157.207 167.761 156.63 167.761C156.033 167.761 155.497 167.895 155.023 168.163C154.55 168.431 154.174 168.822 153.895 169.337C153.628 169.842 153.494 170.445 153.494 171.145C153.494 171.835 153.628 172.443 153.895 172.968C154.174 173.483 154.55 173.88 155.023 174.158C155.497 174.426 156.033 174.56 156.63 174.56C157.207 174.56 157.733 174.421 158.207 174.143C158.691 173.865 159.072 173.468 159.35 172.953C159.628 172.438 159.767 171.84 159.767 171.161ZM162.824 171.145C162.824 170.28 162.999 169.523 163.349 168.874C163.699 168.214 164.178 167.71 164.786 167.359C165.404 166.999 166.099 166.819 166.872 166.819C167.614 166.819 168.283 166.999 168.881 167.359C169.478 167.72 169.916 168.189 170.194 168.766V163.945H171.276V175.379H170.194V173.494C169.937 174.081 169.514 174.565 168.927 174.946C168.34 175.317 167.65 175.503 166.857 175.503C166.084 175.503 165.389 175.322 164.771 174.962C164.163 174.601 163.684 174.091 163.334 173.432C162.994 172.773 162.824 172.01 162.824 171.145ZM170.194 171.161C170.194 170.481 170.055 169.883 169.777 169.368C169.499 168.853 169.118 168.456 168.633 168.178C168.16 167.9 167.634 167.761 167.057 167.761C166.46 167.761 165.924 167.895 165.45 168.163C164.977 168.431 164.601 168.822 164.322 169.337C164.055 169.842 163.921 170.445 163.921 171.145C163.921 171.835 164.055 172.443 164.322 172.968C164.601 173.483 164.977 173.88 165.45 174.158C165.924 174.426 166.46 174.56 167.057 174.56C167.634 174.56 168.16 174.421 168.633 174.143C169.118 173.865 169.499 173.468 169.777 172.953C170.055 172.438 170.194 171.84 170.194 171.161ZM173.251 171.145C173.251 170.28 173.421 169.523 173.76 168.874C174.111 168.214 174.59 167.71 175.198 167.359C175.816 166.999 176.511 166.819 177.284 166.819C178.087 166.819 178.777 167.004 179.354 167.375C179.941 167.746 180.364 168.22 180.621 168.796V166.942H181.703V175.379H180.621V173.509C180.353 174.086 179.926 174.565 179.339 174.946C178.762 175.317 178.072 175.503 177.268 175.503C176.506 175.503 175.816 175.322 175.198 174.962C174.59 174.601 174.111 174.091 173.76 173.432C173.421 172.773 173.251 172.01 173.251 171.145ZM180.621 171.161C180.621 170.481 180.482 169.883 180.204 169.368C179.926 168.853 179.545 168.456 179.06 168.178C178.587 167.9 178.061 167.761 177.484 167.761C176.887 167.761 176.351 167.895 175.877 168.163C175.404 168.431 175.028 168.822 174.749 169.337C174.482 169.842 174.348 170.445 174.348 171.145C174.348 171.835 174.482 172.443 174.749 172.968C175.028 173.483 175.404 173.88 175.877 174.158C176.351 174.426 176.887 174.56 177.484 174.56C178.061 174.56 178.587 174.421 179.06 174.143C179.545 173.865 179.926 173.468 180.204 172.953C180.482 172.438 180.621 171.84 180.621 171.161ZM175.707 166.015C175.769 165.552 175.919 165.196 176.156 164.949C176.392 164.702 176.696 164.578 177.067 164.578C177.253 164.578 177.412 164.614 177.546 164.686C177.68 164.748 177.84 164.841 178.025 164.964C178.18 165.078 178.314 165.165 178.427 165.227C178.54 165.279 178.664 165.304 178.798 165.304C178.973 165.304 179.122 165.248 179.246 165.134C179.37 165.011 179.447 164.836 179.478 164.609H180.127C180.085 165.062 179.936 165.418 179.679 165.675C179.431 165.922 179.122 166.046 178.751 166.046C178.556 166.046 178.386 166.015 178.242 165.953C178.108 165.881 177.948 165.778 177.763 165.644C177.618 165.531 177.49 165.449 177.376 165.397C177.273 165.346 177.155 165.32 177.021 165.32C176.65 165.32 176.434 165.552 176.372 166.015H175.707ZM187.865 175.503C187.072 175.503 186.356 175.327 185.717 174.977C185.089 174.617 184.589 174.112 184.218 173.463C183.858 172.804 183.678 172.036 183.678 171.161C183.678 170.285 183.863 169.523 184.234 168.874C184.605 168.214 185.109 167.71 185.748 167.359C186.387 166.999 187.103 166.819 187.896 166.819C188.689 166.819 189.405 166.999 190.044 167.359C190.693 167.71 191.197 168.214 191.558 168.874C191.929 169.523 192.114 170.285 192.114 171.161C192.114 172.026 191.929 172.788 191.558 173.447C191.187 174.107 190.677 174.617 190.028 174.977C189.379 175.327 188.658 175.503 187.865 175.503ZM187.865 174.56C188.421 174.56 188.936 174.436 189.41 174.189C189.884 173.932 190.265 173.55 190.554 173.046C190.852 172.531 191.002 171.902 191.002 171.161C191.002 170.419 190.857 169.796 190.569 169.291C190.281 168.776 189.899 168.395 189.426 168.147C188.952 167.89 188.437 167.761 187.88 167.761C187.324 167.761 186.809 167.89 186.335 168.147C185.861 168.395 185.48 168.776 185.192 169.291C184.914 169.796 184.775 170.419 184.775 171.161C184.775 171.902 184.914 172.531 185.192 173.046C185.48 173.55 185.856 173.932 186.32 174.189C186.794 174.436 187.309 174.56 187.865 174.56ZM205.959 170.728C205.959 171.099 205.949 171.382 205.928 171.578H198.929C198.96 172.216 199.114 172.762 199.392 173.216C199.67 173.669 200.036 174.014 200.489 174.251C200.943 174.478 201.437 174.591 201.973 174.591C202.673 174.591 203.26 174.421 203.734 174.081C204.218 173.741 204.538 173.283 204.692 172.706H205.836C205.63 173.53 205.187 174.205 204.507 174.73C203.837 175.245 202.993 175.503 201.973 175.503C201.18 175.503 200.469 175.327 199.84 174.977C199.212 174.617 198.718 174.112 198.357 173.463C198.007 172.804 197.832 172.036 197.832 171.161C197.832 170.285 198.007 169.518 198.357 168.858C198.707 168.199 199.197 167.694 199.825 167.344C200.453 166.994 201.169 166.819 201.973 166.819C202.776 166.819 203.477 166.994 204.074 167.344C204.682 167.694 205.146 168.168 205.465 168.766C205.794 169.353 205.959 170.007 205.959 170.728ZM204.862 170.697C204.873 170.069 204.744 169.533 204.476 169.09C204.218 168.647 203.863 168.312 203.41 168.086C202.957 167.859 202.462 167.746 201.926 167.746C201.123 167.746 200.438 168.003 199.871 168.518C199.305 169.033 198.991 169.76 198.929 170.697H204.862ZM203.317 164.454L200.149 166.293V165.459L203.317 163.481V164.454ZM213.26 168.441C213.497 167.916 213.858 167.509 214.342 167.22C214.836 166.932 215.439 166.788 216.15 166.788V167.916H215.856C215.073 167.916 214.445 168.127 213.971 168.549C213.497 168.972 213.26 169.677 213.26 170.666V175.379H212.178V166.942H213.26V168.441ZM225.41 170.728C225.41 171.099 225.4 171.382 225.379 171.578H218.379C218.41 172.216 218.565 172.762 218.843 173.216C219.121 173.669 219.487 174.014 219.94 174.251C220.393 174.478 220.888 174.591 221.423 174.591C222.124 174.591 222.711 174.421 223.185 174.081C223.669 173.741 223.988 173.283 224.143 172.706H225.286C225.08 173.53 224.637 174.205 223.957 174.73C223.288 175.245 222.443 175.503 221.423 175.503C220.63 175.503 219.919 175.327 219.291 174.977C218.663 174.617 218.168 174.112 217.808 173.463C217.457 172.804 217.282 172.036 217.282 171.161C217.282 170.285 217.457 169.518 217.808 168.858C218.158 168.199 218.647 167.694 219.276 167.344C219.904 166.994 220.62 166.819 221.423 166.819C222.227 166.819 222.927 166.994 223.525 167.344C224.133 167.694 224.596 168.168 224.915 168.766C225.245 169.353 225.41 170.007 225.41 170.728ZM224.313 170.697C224.323 170.069 224.194 169.533 223.927 169.09C223.669 168.647 223.314 168.312 222.86 168.086C222.407 167.859 221.913 167.746 221.377 167.746C220.573 167.746 219.888 168.003 219.322 168.518C218.755 169.033 218.441 169.76 218.379 170.697H224.313ZM234.698 166.942V175.379H233.616V173.896C233.369 174.421 232.988 174.823 232.472 175.101C231.957 175.379 231.381 175.518 230.742 175.518C229.732 175.518 228.908 175.209 228.27 174.591C227.631 173.962 227.312 173.056 227.312 171.871V166.942H228.378V171.748C228.378 172.665 228.604 173.365 229.058 173.849C229.521 174.333 230.15 174.575 230.943 174.575C231.757 174.575 232.406 174.318 232.89 173.803C233.374 173.288 233.616 172.531 233.616 171.531V166.942H234.698ZM232.472 164.454L229.305 166.293V165.459L232.472 163.481V164.454ZM242.473 168.796C242.741 168.23 243.163 167.761 243.74 167.39C244.327 167.009 245.023 166.819 245.826 166.819C246.589 166.819 247.274 166.999 247.881 167.359C248.499 167.71 248.978 168.214 249.318 168.874C249.669 169.523 249.844 170.28 249.844 171.145C249.844 172.01 249.669 172.773 249.318 173.432C248.978 174.091 248.499 174.601 247.881 174.962C247.274 175.322 246.589 175.503 245.826 175.503C245.033 175.503 244.343 175.317 243.756 174.946C243.169 174.565 242.741 174.091 242.473 173.525V179.365H241.407V166.942H242.473V168.796ZM248.747 171.145C248.747 170.445 248.608 169.842 248.33 169.337C248.062 168.822 247.691 168.431 247.217 168.163C246.743 167.895 246.207 167.761 245.61 167.761C245.033 167.761 244.503 167.9 244.018 168.178C243.545 168.456 243.169 168.853 242.89 169.368C242.612 169.883 242.473 170.481 242.473 171.161C242.473 171.84 242.612 172.438 242.89 172.953C243.169 173.468 243.545 173.865 244.018 174.143C244.503 174.421 245.033 174.56 245.61 174.56C246.207 174.56 246.743 174.426 247.217 174.158C247.691 173.88 248.062 173.483 248.33 172.968C248.608 172.443 248.747 171.835 248.747 171.145ZM252.916 168.441C253.153 167.916 253.513 167.509 253.997 167.22C254.492 166.932 255.094 166.788 255.805 166.788V167.916H255.512C254.729 167.916 254.1 168.127 253.626 168.549C253.153 168.972 252.916 169.677 252.916 170.666V175.379H251.834V166.942H252.916V168.441ZM257.973 165.351C257.757 165.351 257.571 165.273 257.417 165.119C257.262 164.964 257.185 164.774 257.185 164.547C257.185 164.321 257.262 164.135 257.417 163.991C257.571 163.836 257.757 163.759 257.973 163.759C258.189 163.759 258.375 163.836 258.529 163.991C258.684 164.135 258.761 164.321 258.761 164.547C258.761 164.774 258.684 164.964 258.529 165.119C258.375 165.273 258.189 165.351 257.973 165.351ZM258.514 166.942V175.379H257.432V166.942H258.514ZM271.007 166.788C271.996 166.788 272.799 167.102 273.417 167.73C274.046 168.348 274.36 169.25 274.36 170.434V175.379H273.294V170.558C273.294 169.641 273.072 168.941 272.629 168.456C272.186 167.972 271.584 167.73 270.822 167.73C270.028 167.73 269.395 167.993 268.921 168.518C268.447 169.044 268.21 169.806 268.21 170.805V175.379H267.144V170.558C267.144 169.641 266.923 168.941 266.48 168.456C266.037 167.972 265.429 167.73 264.656 167.73C263.863 167.73 263.23 167.993 262.756 168.518C262.282 169.044 262.045 169.806 262.045 170.805V175.379H260.963V166.942H262.045V168.395C262.313 167.869 262.694 167.473 263.188 167.205C263.683 166.927 264.234 166.788 264.842 166.788C265.573 166.788 266.212 166.963 266.758 167.313C267.314 167.663 267.716 168.178 267.963 168.858C268.19 168.189 268.576 167.679 269.122 167.329C269.678 166.968 270.307 166.788 271.007 166.788ZM276.268 171.145C276.268 170.28 276.438 169.523 276.778 168.874C277.128 168.214 277.607 167.71 278.215 167.359C278.833 166.999 279.528 166.819 280.301 166.819C281.104 166.819 281.794 167.004 282.371 167.375C282.958 167.746 283.381 168.22 283.638 168.796V166.942H284.72V175.379H283.638V173.509C283.37 174.086 282.943 174.565 282.356 174.946C281.779 175.317 281.089 175.503 280.285 175.503C279.523 175.503 278.833 175.322 278.215 174.962C277.607 174.601 277.128 174.091 276.778 173.432C276.438 172.773 276.268 172.01 276.268 171.145ZM283.638 171.161C283.638 170.481 283.499 169.883 283.221 169.368C282.943 168.853 282.562 168.456 282.078 168.178C281.604 167.9 281.078 167.761 280.502 167.761C279.904 167.761 279.368 167.895 278.895 168.163C278.421 168.431 278.045 168.822 277.767 169.337C277.499 169.842 277.365 170.445 277.365 171.145C277.365 171.835 277.499 172.443 277.767 172.968C278.045 173.483 278.421 173.88 278.895 174.158C279.368 174.426 279.904 174.56 280.502 174.56C281.078 174.56 281.604 174.421 282.078 174.143C282.562 173.865 282.943 173.468 283.221 172.953C283.499 172.438 283.638 171.84 283.638 171.161ZM288.271 168.441C288.508 167.916 288.868 167.509 289.352 167.22C289.847 166.932 290.449 166.788 291.16 166.788V167.916H290.867C290.084 167.916 289.455 168.127 288.982 168.549C288.508 168.972 288.271 169.677 288.271 170.666V175.379H287.189V166.942H288.271V168.441ZM293.328 165.351C293.112 165.351 292.926 165.273 292.772 165.119C292.617 164.964 292.54 164.774 292.54 164.547C292.54 164.321 292.617 164.135 292.772 163.991C292.926 163.836 293.112 163.759 293.328 163.759C293.545 163.759 293.73 163.836 293.884 163.991C294.039 164.135 294.116 164.321 294.116 164.547C294.116 164.774 294.039 164.964 293.884 165.119C293.73 165.273 293.545 165.351 293.328 165.351ZM293.869 166.942V175.379H292.787V166.942H293.869ZM300.011 175.503C299.218 175.503 298.502 175.327 297.864 174.977C297.235 174.617 296.736 174.112 296.365 173.463C296.004 172.804 295.824 172.036 295.824 171.161C295.824 170.285 296.009 169.523 296.38 168.874C296.751 168.214 297.256 167.71 297.894 167.359C298.533 166.999 299.249 166.819 300.042 166.819C300.835 166.819 301.551 166.999 302.19 167.359C302.839 167.71 303.344 168.214 303.704 168.874C304.075 169.523 304.261 170.285 304.261 171.161C304.261 172.026 304.075 172.788 303.704 173.447C303.334 174.107 302.824 174.617 302.175 174.977C301.526 175.327 300.805 175.503 300.011 175.503ZM300.011 174.56C300.568 174.56 301.083 174.436 301.557 174.189C302.03 173.932 302.412 173.55 302.7 173.046C302.999 172.531 303.148 171.902 303.148 171.161C303.148 170.419 303.004 169.796 302.715 169.291C302.427 168.776 302.046 168.395 301.572 168.147C301.098 167.89 300.583 167.761 300.027 167.761C299.471 167.761 298.956 167.89 298.482 168.147C298.008 168.395 297.627 168.776 297.338 169.291C297.06 169.796 296.921 170.419 296.921 171.161C296.921 171.902 297.06 172.531 297.338 173.046C297.627 173.55 298.003 173.932 298.466 174.189C298.94 174.436 299.455 174.56 300.011 174.56Z" fill="white"/>
</svg>
