<svg width="80" height="80" viewBox="0 0 80 80" fill="none" xmlns="http://www.w3.org/2000/svg">
<path d="M40.0013 36.6667C36.3346 36.6667 33.3346 39.6667 33.3346 43.3333C33.3346 47 36.3346 50 40.0013 50C43.668 50 46.668 47 46.668 43.3333C46.668 39.6667 43.668 36.6667 40.0013 36.6667ZM60.0013 43.3333C60.0013 32.3 51.0346 23.3333 40.0013 23.3333C28.968 23.3333 20.0013 32.3 20.0013 43.3333C20.0013 50.7333 24.0346 57.1667 30.0013 60.6333L33.3346 54.8333C29.368 52.5 26.668 48.2667 26.668 43.3333C26.668 35.9667 32.6346 30 40.0013 30C47.368 30 53.3346 35.9667 53.3346 43.3333C53.3346 48.2667 50.6346 52.5 46.668 54.8333L50.0013 60.6333C55.968 57.1667 60.0013 50.7333 60.0013 43.3333ZM40.0013 10C21.6013 10 6.66797 24.9333 6.66797 43.3333C6.66797 55.6667 13.368 66.4 23.3013 72.1667L26.6346 66.4C18.7013 61.7667 13.3346 53.2 13.3346 43.3333C13.3346 28.6 25.268 16.6667 40.0013 16.6667C54.7346 16.6667 66.668 28.6 66.668 43.3333C66.668 53.2 61.3013 61.7667 53.3346 66.4L56.668 72.1667C66.6346 66.4 73.3346 55.6667 73.3346 43.3333C73.3346 24.9333 58.4013 10 40.0013 10V10Z" fill="#2C2F33"/>
</svg>
